<?xml version="1.0" standalone="no"?>
<!DOCTYPE svg PUBLIC "-//W3C//DTD SVG 20010904//EN"
 "http://www.w3.org/TR/2001/REC-SVG-20010904/DTD/svg10.dtd">
<svg version="1.0" xmlns="http://www.w3.org/2000/svg"
 width="260.000000pt" height="260.000000pt" viewBox="0 0 260.000000 260.000000"
 preserveAspectRatio="xMidYMid meet">
<metadata>
Created by potrace 1.11, written by Peter Selinger 2001-2013
</metadata>
<g transform="translate(0.000000,260.000000) scale(0.100000,-0.100000)"
fill="#000000" stroke="none">
<path d="M997 1737 c-3 -8 -2 -20 3 -27 11 -18 42 -4 38 17 -4 22 -34 29 -41
10z"/>
<path d="M837 1706 c-7 -18 11 -36 29 -29 21 8 17 43 -5 43 -10 0 -21 -6 -24
-14z"/>
<path d="M1154 1705 c-9 -23 4 -47 23 -43 22 4 30 38 11 49 -19 13 -28 11 -34
-6z"/>
<path d="M707 1624 c-9 -9 4 -34 18 -34 14 0 27 25 18 34 -4 3 -12 6 -18 6 -6
0 -14 -3 -18 -6z"/>
<path d="M1260 1614 c-18 -21 9 -49 39 -39 23 7 27 25 9 43 -16 16 -33 15 -48
-4z"/>
<path d="M1321 1517 c-18 -23 -2 -49 28 -45 20 2 26 8 26 28 0 29 -34 40 -54
17z"/>
<path d="M630 1475 c0 -8 7 -15 15 -15 8 0 15 7 15 15 0 8 -7 15 -15 15 -8 0
-15 -7 -15 -15z"/>
<path d="M1378 1432 c-25 -5 -32 -34 -12 -49 24 -17 49 -16 64 2 23 28 -8 57
-52 47z"/>
<path d="M0 1395 c0 -33 65 -174 82 -178 10 -3 20 -2 23 3 9 15 75 174 75 182
0 4 -10 4 -21 -1 -14 -5 -29 -27 -42 -62 -11 -30 -23 -58 -27 -62 -4 -5 -17
19 -30 53 -22 59 -60 100 -60 65z"/>
<path d="M340 1389 c-31 -19 -45 -62 -35 -108 9 -44 40 -66 92 -66 37 0 49 5
69 28 42 49 30 123 -25 151 -35 18 -65 17 -101 -5z m100 -34 c17 -21 15 -74
-3 -93 -19 -19 -65 -19 -84 0 -18 19 -20 72 -3 93 7 8 27 15 45 15 18 0 38 -7
45 -15z"/>
<path d="M860 1403 c-27 -10 -59 -45 -65 -73 -17 -75 54 -135 131 -110 49 16
38 36 -18 32 -53 -4 -78 15 -78 57 0 43 31 65 79 57 46 -7 62 7 29 26 -26 14
-55 18 -78 11z"/>
<path d="M1088 1399 c-10 -7 -14 -160 -4 -177 3 -5 78 -7 129 -3 4 1 7 8 7 15
0 11 -15 16 -52 18 -40 2 -52 7 -54 21 -2 17 12 21 69 17 15 -1 27 3 27 9 0 6
1 14 3 19 1 4 -14 8 -33 9 -19 0 -43 2 -53 2 -12 1 -17 7 -15 19 3 16 12 19
81 21 17 1 27 7 27 16 0 8 -3 15 -7 16 -45 4 -116 3 -125 -2z"/>
<path d="M2217 1398 c-28 -10 -44 -45 -33 -73 3 -8 26 -20 51 -26 51 -13 62
-23 45 -44 -13 -16 -54 -11 -78 8 -20 16 -35 -6 -18 -28 10 -14 26 -19 59 -19
102 -1 114 91 14 111 -22 5 -42 14 -44 20 -6 17 46 28 67 15 20 -12 42 -1 31
16 -12 19 -63 30 -94 20z"/>
<path d="M2487 1398 c-35 -12 -46 -51 -22 -78 9 -10 34 -22 56 -25 29 -5 39
-11 39 -26 0 -10 -6 -20 -12 -20 -32 -4 -62 1 -69 12 -4 8 -12 8 -24 2 -15 -9
-14 -12 10 -31 31 -24 62 -28 99 -11 30 14 38 32 30 65 -5 19 -18 27 -60 40
-38 11 -51 19 -47 30 6 16 46 19 73 4 13 -7 21 -7 26 1 15 25 -55 51 -99 37z"/>
<path d="M624 1310 c0 -79 2 -90 18 -90 16 0 18 10 18 90 0 80 -2 90 -18 90
-16 0 -18 -10 -18 -90z"/>
<path d="M1610 1305 c0 -93 1 -95 20 -85 11 6 19 19 18 28 -2 13 7 18 39 22
52 8 73 25 73 61 0 46 -28 66 -94 68 l-56 1 0 -95z m96 56 c20 -2 24 -30 8
-46 -17 -17 -63 -21 -65 -5 -1 6 -1 17 -1 25 0 34 -3 33 58 26z"/>
<path d="M1916 1328 c-47 -103 -50 -117 -30 -114 9 1 20 10 26 19 14 25 104
24 110 -1 6 -20 38 -26 38 -7 0 10 -47 116 -69 155 -20 37 -41 22 -75 -52z
m69 -8 c9 -16 14 -30 13 -31 -27 -7 -48 -7 -53 0 -5 9 14 61 21 61 2 0 10 -13
19 -30z"/>
<path d="M1416 1327 c-23 -17 -14 -53 14 -62 23 -7 60 10 60 28 -1 34 -46 55
-74 34z"/>
<path d="M1467 1228 c-24 -13 -21 -47 6 -57 30 -12 59 5 55 31 -4 25 -38 40
-61 26z"/>
<path d="M2237 1144 c-8 -8 1 -24 14 -24 5 0 9 7 9 15 0 15 -12 20 -23 9z"/>
<path d="M1523 1123 c-20 -7 -15 -41 6 -53 15 -7 25 -5 42 8 l22 19 -24 16
c-25 18 -27 18 -46 10z"/>
<path d="M1583 1014 c-4 -11 1 -22 12 -31 16 -11 21 -11 33 1 8 8 12 22 9 30
-8 21 -46 21 -54 0z"/>
<path d="M2150 996 c0 -21 21 -31 30 -15 5 7 6 17 4 21 -9 14 -34 9 -34 -6z"/>
<path d="M1687 926 c-6 -15 11 -36 28 -36 17 0 34 21 28 36 -3 8 -15 14 -28
14 -13 0 -25 -6 -28 -14z"/>
<path d="M2026 923 c-13 -14 -5 -33 14 -33 11 0 20 6 20 14 0 15 -24 28 -34
19z"/>
<path d="M1854 885 c-6 -15 2 -35 14 -35 4 0 13 4 21 9 12 8 12 12 2 25 -17
20 -30 20 -37 1z"/>
</g>
</svg>
